Coordinates
version=1
nRows=21
nColumns=22
inDegrees=yes

Units are S.I. units (second, meters, Newtons, ...)
If the header above contains a line with 'inDegrees', this indicates whether rotational values are in degrees (yes) or radians (no).

endheader
time	pelvis_tilt	pelvis_list	pelvis_rotation	pelvis_tx	pelvis_ty	pelvis_tz	hip_flexion_r	hip_adduction_r	hip_rotation_r	knee_angle_r	ankle_angle_r	subtalar_angle_r	hip_flexion_l	hip_adduction_l	hip_rotation_l	knee_angle_l	ankle_angle_l	subtalar_angle_l	lumbar_extension	lumbar_bending	lumbar_rotation
      1.32000000	     -7.41698298	     -3.47829470	     -0.80524050	     -1.11565158	      0.95209935	      0.01098168	      8.73094062	      2.23037079	     -2.43957601	    -10.51569573	     10.51750752	     -0.31065002	     14.14305691	     -5.95467894	     -7.65084451	    -20.76335836	     12.70678286	     -1.15064401	     -2.65200459	      1.59482593	      0.10529915
      1.33000000	     -7.41128941	     -3.53493856	     -0.79948354	     -1.11510296	      0.95195626	      0.00997350	      8.72047346	      2.21925706	     -2.45610786	    -10.57696255	     10.58059460	     -0.25462817	     14.22831734	     -5.95450848	     -7.58312540	    -20.99444302	     12.83831164	     -1.18367291	     -2.69524906	      1.65086530	      0.19462319
      1.34000000	     -7.40992124	     -3.58933134	     -0.79347491	     -1.11450620	      0.95179804	      0.00891100	      8.72160369	      2.20192051	     -2.47836521	    -10.65657260	     10.65042170	     -0.19214362	     14.30637104	     -5.94714008	     -7.51269237	    -21.21104654	     12.96973482	     -1.21577780	     -2.73551460	      1.70470541	      0.28322329
      1.35000000	     -7.43382780	     -3.64377978	     -0.77263491	     -1.11385774	      0.95159085	      0.00776864	      8.75144475	      2.17808037	     -2.53184483	    -10.74526263	     10.73511120	     -0.06428746	     14.41032097	     -5.93246436	     -7.43348336	    -21.42761556	     13.10568156	     -1.24624955	     -2.74440808	      1.75789937	      0.37076888
      1.36000000	     -7.41015589	     -3.68295074	     -0.76191143	     -1.11317067	      0.95145670	      0.00657877	      8.75690089	      2.13750671	     -2.53367897	    -10.88830558	     10.81299366	     -0.02400256	     14.43235409	     -5.89367011	     -7.35533521	    -21.59902414	     13.22073150	     -1.28188217	     -2.81789648	      1.79441498	      0.44922376
      1.37000000	     -7.39044525	     -3.71890002	     -0.73263349	     -1.11240368	      0.95130046	      0.00530662	      8.77060879	      2.08688856	     -2.56079678	    -11.04975390	     10.91606770	      0.02455884	     14.45104497	     -5.84436923	     -7.27551309	    -21.76145883	     13.35286436	     -1.32916580	     -2.88107953	      1.82576028	      0.51891888
      1.38000000	     -7.38798904	     -3.73757839	     -0.68341180	     -1.11158713	      0.95110069	      0.00393033	      8.82183787	      2.00751482	     -2.62836647	    -11.25231048	     11.06019113	      0.15157081	     14.48809893	     -5.76390412	     -7.17281555	    -21.92458484	     13.47197578	     -1.40267158	     -2.91991661	      1.83967842	      0.55379111
      1.39000000	     -7.35405086	     -3.76271606	     -0.64533699	     -1.11070214	      0.95095409	      0.00252762	      8.87291037	      1.93775054	     -2.63675418	    -11.52386994	     11.17624450	      0.19224720	     14.45484756	     -5.68617989	     -7.07888598	    -22.03486692	     13.60262230	     -1.46374698	     -2.99319878	      1.86144087	      0.58619639
      1.40000000	     -7.35162531	     -3.75066972	     -0.57993030	     -1.10980883	      0.95073891	      0.00100977	      9.00554071	      1.81411789	     -2.68817926	    -11.88659875	     11.35300409	      0.36390915	     14.46558361	     -5.55407367	     -6.95476653	    -22.15441552	     13.67703411	     -1.59891917	     -3.02812949	      1.84315225	      0.55993181
      1.41000000	     -7.30925656	     -3.73807900	     -0.52129674	     -1.10883377	      0.95057016	     -0.00053497	      9.12809611	      1.69212037	     -2.69891978	    -12.31351255	     11.52898192	      0.40312612	     14.40786476	     -5.42448815	     -6.87614249	    -22.24233986	     13.81635198	     -1.68561293	     -3.10419485	      1.82522876	      0.51544746
      1.42000000	     -7.29336328	     -3.69583743	     -0.45238542	     -1.10788258	      0.95034846	     -0.00215251	      9.35290161	      1.53066613	     -2.70511098	    -12.87034238	     11.73192411	      0.49053051	     14.38170576	     -5.25202033	     -6.76465621	    -22.32988243	     13.89679033	     -1.81072658	     -3.15262111	      1.77450280	      0.44815350
      1.43000000	     -7.25745065	     -3.64129351	     -0.38318782	     -1.10687208	      0.95013130	     -0.00381825	      9.62097764	      1.35270676	     -2.69323064	    -13.54699207	     11.96398668	      0.53583937	     14.30881008	     -5.06685101	     -6.68518253	    -22.37975276	     14.02479965	     -1.91621140	     -3.21915137	      1.71505848	      0.33551865
      1.44000000	     -7.22917470	     -3.55619173	     -0.30848913	     -1.10586901	      0.94987757	     -0.00552473	      9.98288751	      1.13967699	     -2.65233721	    -14.37418965	     12.21692393	      0.58643184	     14.24321786	     -4.84630413	     -6.60347921	    -22.42802044	     14.12286718	     -2.01917032	     -3.28033971	      1.61877020	      0.19873739
      1.45000000	     -7.24041325	     -3.44063462	     -0.23263245	     -1.10493844	      0.94952794	     -0.00724470	     10.49574924	      0.89478114	     -2.55445739	    -15.38561560	     12.48261441	      0.69191348	     14.24006481	     -4.59596636	     -6.51580792	    -22.50675679	     14.16050136	     -2.14140384	     -3.30714520	      1.48399371	      0.03994611
      1.46000000	     -7.20336931	     -3.30170548	     -0.15949678	     -1.10393744	      0.94920746	     -0.00899284	     11.04596336	      0.62551053	     -2.44265004	    -16.56040317	     12.76705610	      0.74341134	     14.15515938	     -4.32473462	     -6.47103709	    -22.54371357	     14.25134561	     -2.21814357	     -3.39034706	      1.32752283	     -0.15236929
      1.47000000	     -7.19440250	     -3.14234645	     -0.10273891	     -1.10293560	      0.94879865	     -0.01068569	     11.74648903	      0.34271890	     -2.30062331	    -17.94361180	     13.03839331	      0.81222705	     14.09389223	     -4.04301757	     -6.45784856	    -22.57642999	     14.33643999	     -2.28822263	     -3.44368304	      1.13928460	     -0.34986496
      1.48000000	     -7.11267934	     -2.93474953	     -0.04529512	     -1.10187004	      0.94845238	     -0.01234846	     12.45900001	      0.01935809	     -2.11910932	    -19.49108994	     13.31929436	      0.80624400	     13.93947749	     -3.71711564	     -6.47729282	    -22.59442434	     14.41920129	     -2.30641607	     -3.58852889	      0.88895256	     -0.58552740
      1.49000000	     -7.04326357	     -2.71720124	     -0.01704861	     -1.10078465	      0.94804373	     -0.01390467	     13.30508709	     -0.29795716	     -1.91696773	    -21.24329648	     13.53777784	      0.79002130	     13.78864019	     -3.39519948	     -6.53668134	    -22.60647352	     14.50677541	     -2.31622915	     -3.72742987	      0.62002298	     -0.80584840
      1.50000000	     -6.98268557	     -2.50410580	     -0.01674788	     -1.09967489	      0.94758419	     -0.01532583	     14.27261718	     -0.58953978	     -1.71205600	    -23.18051722	     13.65503602	      0.75756544	     13.64639692	     -3.09467116	     -6.63872037	    -22.62764759	     14.61290974	     -2.32414694	     -3.86426898	      0.34662524	     -1.01392671
      1.51000000	     -6.83405162	     -2.26486181	     -0.03002295	     -1.09846754	      0.94724189	     -0.01664072	     15.21901871	     -0.88737920	     -1.49704420	    -25.24255913	     13.72835056	      0.67116744	     13.38554485	     -2.76955738	     -6.74420156	    -22.62133262	     14.71425644	     -2.31880413	     -4.11222754	      0.03638801	     -1.24524935
      1.52000000	     -6.68179129	     -2.04685258	     -0.07854670	     -1.09720451	      0.94690528	     -0.01779783	     16.24582405	     -1.13836117	     -1.29903886	    -27.43013568	     13.66410462	      0.55339689	     13.11600281	     -2.48059018	     -6.88035112	    -22.61932201	     14.83209884	     -2.32634701	     -4.37254018	     -0.25394485	     -1.45625165
